<svg width="1920" height="947" viewBox="0 0 1920 947" fill="none" xmlns="http://www.w3.org/2000/svg">
<path d="M41.8464 900.986L25.4902 912.622H0V764H1920V942.24L1906.45 947L1877.47 929.017L1832.14 891.994L1795.69 923.728H1758.78L1705.03 891.994L1683.07 895.168H1611.1L1536.8 933.777L1473.71 895.168L1407.35 834.873L1309.68 876.127L1288.65 871.367L1248.93 900.457L1215.28 883.003L1206.87 871.367L1154.53 883.003L1145.65 887.234L1073.22 883.003L1023.68 897.812L984.895 894.11L928.817 866.607H900.311L838.157 849.153L801.706 845.451L788.154 816.89H733.945L671.325 859.731L629.733 853.913L605.9 862.905L559.168 893.581L530.194 886.705L478.789 890.408L420.374 853.913L356.819 887.234L315.695 868.194H296.535L232.512 929.018L197.463 941.182L95.588 889.879L41.8464 900.986Z" fill="white"/>
<path d="M41.8464 893.986L25.4902 905.622H0V757H1920V935.24L1906.45 940L1877.47 922.017L1832.14 884.994L1795.69 916.728H1758.78L1705.03 884.994L1683.07 888.168H1611.1L1536.8 926.777L1473.71 888.168L1407.35 827.873L1309.68 869.127L1288.65 864.367L1248.93 893.457L1215.28 876.003L1206.87 864.367L1154.53 876.003L1145.65 880.234L1073.22 876.003L1023.68 890.812L984.895 887.11L928.817 859.607H900.311L838.157 842.153L801.706 838.451L788.154 809.89H733.945L671.325 852.731L629.733 846.913L605.9 855.905L559.168 886.581L530.194 879.705L478.789 883.408L420.374 846.913L356.819 880.234L315.695 861.194H296.535L232.512 922.018L197.463 934.182L95.588 882.879L41.8464 893.986Z" fill="#F0E6E6"/>
<path d="M41.8464 875.986L25.4902 887.622H0V739H1920V917.24L1906.45 922L1877.47 904.017L1832.14 866.994L1795.69 898.728H1758.78L1705.03 866.994L1683.07 870.168H1611.1L1536.8 908.777L1473.71 870.168L1407.35 809.873L1309.68 851.127L1288.65 846.367L1248.93 875.457L1215.28 858.003L1206.87 846.367L1154.53 858.003L1145.65 862.234L1073.22 858.003L1023.68 872.812L984.895 869.11L928.817 841.607H900.311L838.157 824.153L801.706 820.451L788.154 791.89H733.945L671.325 834.731L629.733 828.913L605.9 837.905L559.168 868.581L530.194 861.705L478.789 865.408L420.374 828.913L356.819 862.234L315.695 843.194H296.535L232.512 904.018L197.463 916.182L95.588 864.879L41.8464 875.986Z" fill="white"/>
<path d="M41.8464 867.986L25.4902 879.622H0V731H1920V909.24L1906.45 914L1877.47 896.017L1832.14 858.994L1795.69 890.728H1758.78L1705.03 858.994L1683.07 862.168H1611.1L1536.8 900.777L1473.71 862.168L1407.35 801.873L1309.68 843.127L1288.65 838.367L1248.93 867.457L1215.28 850.003L1206.87 838.367L1154.53 850.003L1145.65 854.234L1073.22 850.003L1023.68 864.812L984.895 861.11L928.817 833.607H900.311L838.157 816.153L801.706 812.451L788.154 783.89H733.945L671.325 826.731L629.733 820.913L605.9 829.905L559.168 860.581L530.194 853.705L478.789 857.408L420.374 820.913L356.819 854.234L315.695 835.194H296.535L232.512 896.018L197.463 908.182L95.588 856.879L41.8464 867.986Z" fill="#F0E6E6"/>
<path d="M41.8464 848.986L25.4902 860.622H0V712H1920V890.24L1906.45 895L1877.47 877.017L1832.14 839.994L1795.69 871.728H1758.78L1705.03 839.994L1683.07 843.168H1611.1L1536.8 881.777L1473.71 843.168L1407.35 782.873L1309.68 824.127L1288.65 819.367L1248.93 848.457L1215.28 831.003L1206.87 819.367L1154.53 831.003L1145.65 835.234L1073.22 831.003L1023.68 845.812L984.895 842.11L928.817 814.607H900.311L838.157 797.153L801.706 793.451L788.154 764.89H733.945L671.325 807.731L629.733 801.913L605.9 810.905L559.168 841.581L530.194 834.705L478.789 838.408L420.374 801.913L356.819 835.234L315.695 816.194H296.535L232.512 877.018L197.463 889.182L95.588 837.879L41.8464 848.986Z" fill="white"/>
<path d="M41.8464 840.986L25.4902 852.622H0V704H1920V882.24L1906.45 887L1877.47 869.017L1832.14 831.994L1795.69 863.728H1758.78L1705.03 831.994L1683.07 835.168H1611.1L1536.8 873.777L1473.71 835.168L1407.35 774.873L1309.68 816.127L1288.65 811.367L1248.93 840.457L1215.28 823.003L1206.87 811.367L1154.53 823.003L1145.65 827.234L1073.22 823.003L1023.68 837.812L984.895 834.11L928.817 806.607H900.311L838.157 789.153L801.706 785.451L788.154 756.89H733.945L671.325 799.731L629.733 793.913L605.9 802.905L559.168 833.581L530.194 826.705L478.789 830.408L420.374 793.913L356.819 827.234L315.695 808.194H296.535L232.512 869.018L197.463 881.182L95.588 829.879L41.8464 840.986Z" fill="#F0E6E6"/>
<rect width="1920" height="704" fill="#F0E6E6"/>
</svg>
