<svg width="1260" height="424" viewBox="0 0 1260 424" fill="none" xmlns="http://www.w3.org/2000/svg">
<circle cx="1115.07" cy="173.496" r="144" fill="#02131B"/>
<path fill-rule="evenodd" clip-rule="evenodd" d="M1226.74 324.286C1208.98 337.584 1188.51 347.85 1165.88 354.128C1067.51 381.406 965.442 323.02 937.906 223.72C919.295 156.609 939.49 87.9853 984.904 42.1266C925.477 86.6142 896.322 165.026 917.521 241.475C945.058 340.775 1047.12 399.16 1145.49 371.882C1177.38 363.04 1204.96 346.281 1226.74 324.286Z" fill="black"/>
<path d="M61.377 162.207V240.283H97.5586C105.859 240.283 111.914 238.477 115.723 234.863C119.629 231.152 122.217 223.877 123.486 213.037H128.906V280.273H123.486C123.389 272.559 122.363 266.895 120.41 263.281C118.555 259.668 115.918 256.982 112.5 255.225C109.18 253.369 104.199 252.441 97.5586 252.441H61.377V314.844C61.377 324.902 62.0117 331.543 63.2812 334.766C64.2578 337.207 66.3086 339.307 69.4336 341.064C73.7305 343.408 78.2227 344.58 82.9102 344.58H90.0879V350H4.83398V344.58H11.8652C20.0684 344.58 26.0254 342.188 29.7363 337.402C32.0801 334.277 33.252 326.758 33.252 314.844V186.523C33.252 176.465 32.6172 169.824 31.3477 166.602C30.3711 164.16 28.3691 162.061 25.3418 160.303C21.1426 157.959 16.6504 156.787 11.8652 156.787H4.83398V151.367H152.637L154.541 195.02H149.414C146.875 185.742 143.896 178.955 140.479 174.658C137.158 170.264 133.008 167.09 128.027 165.137C123.145 163.184 115.527 162.207 105.176 162.207H61.377ZM222.51 141.699V319.678C222.51 328.076 223.096 333.643 224.268 336.377C225.537 339.111 227.441 341.211 229.98 342.676C232.52 344.043 237.256 344.727 244.189 344.727V350H178.418V344.727C184.57 344.727 188.77 344.092 191.016 342.822C193.262 341.553 195.02 339.453 196.289 336.523C197.559 333.594 198.193 327.979 198.193 319.678V197.803C198.193 182.666 197.852 173.389 197.168 169.971C196.484 166.455 195.361 164.062 193.799 162.793C192.334 161.523 190.43 160.889 188.086 160.889C185.547 160.889 182.324 161.67 178.418 163.232L175.928 158.105L215.918 141.699H222.51ZM325.488 211.865C345.801 211.865 362.109 219.58 374.414 235.01C384.863 248.193 390.088 263.33 390.088 280.42C390.088 292.432 387.207 304.59 381.445 316.895C375.684 329.199 367.725 338.477 357.568 344.727C347.51 350.977 336.279 354.102 323.877 354.102C303.662 354.102 287.598 346.045 275.684 329.932C265.625 316.357 260.596 301.123 260.596 284.229C260.596 271.924 263.623 259.717 269.678 247.607C275.83 235.4 283.887 226.416 293.848 220.654C303.809 214.795 314.355 211.865 325.488 211.865ZM320.947 221.387C315.771 221.387 310.547 222.949 305.273 226.074C300.098 229.102 295.898 234.473 292.676 242.188C289.453 249.902 287.842 259.814 287.842 271.924C287.842 291.455 291.699 308.301 299.414 322.461C307.227 336.621 317.48 343.701 330.176 343.701C339.648 343.701 347.461 339.795 353.613 331.982C359.766 324.17 362.842 310.742 362.842 291.699C362.842 267.871 357.715 249.121 347.461 235.449C340.527 226.074 331.689 221.387 320.947 221.387ZM688.037 334.912C681.494 341.748 675.098 346.68 668.848 349.707C662.598 352.637 655.859 354.102 648.633 354.102C633.984 354.102 621.191 347.998 610.254 335.791C599.316 323.486 593.848 307.715 593.848 288.477C593.848 269.238 599.902 251.66 612.012 235.742C624.121 219.727 639.697 211.719 658.74 211.719C670.557 211.719 680.322 215.479 688.037 222.998V198.242C688.037 182.91 687.646 173.486 686.865 169.971C686.182 166.455 685.059 164.062 683.496 162.793C681.934 161.523 679.98 160.889 677.637 160.889C675.098 160.889 671.729 161.67 667.529 163.232L665.625 158.105L705.615 141.699H712.207V296.826C712.207 312.549 712.549 322.168 713.232 325.684C714.014 329.102 715.186 331.494 716.748 332.861C718.408 334.229 720.312 334.912 722.461 334.912C725.098 334.912 728.613 334.082 733.008 332.422L734.619 337.549L694.775 354.102H688.037V334.912ZM688.037 324.658V255.518C687.451 248.877 685.693 242.822 682.764 237.354C679.834 231.885 675.928 227.783 671.045 225.049C666.26 222.217 661.572 220.801 656.982 220.801C648.389 220.801 640.723 224.658 633.984 232.373C625.098 242.529 620.654 257.373 620.654 276.904C620.654 296.631 624.951 311.768 633.545 322.314C642.139 332.764 651.709 337.988 662.256 337.988C671.143 337.988 679.736 333.545 688.037 324.658ZM819.287 330.664C805.518 341.309 796.875 347.461 793.359 349.121C788.086 351.562 782.471 352.783 776.514 352.783C767.236 352.783 759.57 349.609 753.516 343.262C747.559 336.914 744.58 328.564 744.58 318.213C744.58 311.67 746.045 306.006 748.975 301.221C752.979 294.58 759.912 288.33 769.775 282.471C779.736 276.611 796.24 269.482 819.287 261.084V255.811C819.287 242.432 817.139 233.252 812.842 228.271C808.643 223.291 802.49 220.801 794.385 220.801C788.232 220.801 783.35 222.461 779.736 225.781C776.025 229.102 774.17 232.91 774.17 237.207L774.463 245.703C774.463 250.195 773.291 253.662 770.947 256.104C768.701 258.545 765.723 259.766 762.012 259.766C758.398 259.766 755.42 258.496 753.076 255.957C750.83 253.418 749.707 249.951 749.707 245.557C749.707 237.158 754.004 229.443 762.598 222.412C771.191 215.381 783.252 211.865 798.779 211.865C810.693 211.865 820.459 213.867 828.076 217.871C833.838 220.898 838.086 225.635 840.82 232.08C842.578 236.279 843.457 244.873 843.457 257.861V303.418C843.457 316.211 843.701 324.072 844.189 327.002C844.678 329.834 845.459 331.738 846.533 332.715C847.705 333.691 849.023 334.18 850.488 334.18C852.051 334.18 853.418 333.838 854.59 333.154C856.641 331.885 860.596 328.32 866.455 322.461V330.664C855.518 345.312 845.068 352.637 835.107 352.637C830.322 352.637 826.514 350.977 823.682 347.656C820.85 344.336 819.385 338.672 819.287 330.664ZM819.287 321.143V270.02C804.541 275.879 795.02 280.029 790.723 282.471C783.008 286.768 777.49 291.26 774.17 295.947C770.85 300.635 769.189 305.762 769.189 311.328C769.189 318.359 771.289 324.219 775.488 328.906C779.688 333.496 784.521 335.791 789.99 335.791C797.412 335.791 807.178 330.908 819.287 321.143Z" fill="#0F0808"/>
<path d="M449.121 211.865V242.041C460.352 221.924 471.875 211.865 483.691 211.865C489.062 211.865 493.506 213.525 497.021 216.846C500.537 220.068 502.295 223.828 502.295 228.125C502.295 231.934 501.025 235.156 498.486 237.793C495.947 240.43 492.92 241.748 489.404 241.748C485.986 241.748 482.129 240.088 477.832 236.768C473.633 233.35 470.508 231.641 468.457 231.641C466.699 231.641 464.795 232.617 462.744 234.57C458.35 238.574 453.809 245.166 449.121 254.346V318.652C449.121 326.074 450.049 331.689 451.904 335.498C453.174 338.135 455.42 340.332 458.643 342.09C461.865 343.848 466.504 344.727 472.559 344.727V350H403.857V344.727C410.693 344.727 415.771 343.652 419.092 341.504C421.533 339.941 423.242 337.451 424.219 334.033C424.707 332.373 424.951 327.637 424.951 319.824V267.822C424.951 252.197 424.609 242.92 423.926 239.99C423.34 236.963 422.168 234.766 420.41 233.398C418.75 232.031 416.65 231.348 414.111 231.348C411.084 231.348 407.666 232.08 403.857 233.545L402.393 228.271L442.969 211.865H449.121ZM543.896 141.699C547.998 141.699 551.465 143.164 554.297 146.094C557.227 148.926 558.691 152.393 558.691 156.494C558.691 160.596 557.227 164.111 554.297 167.041C551.465 169.971 547.998 171.436 543.896 171.436C539.795 171.436 536.279 169.971 533.35 167.041C530.42 164.111 528.955 160.596 528.955 156.494C528.955 152.393 530.371 148.926 533.203 146.094C536.133 143.164 539.697 141.699 543.896 141.699ZM556.055 211.865V319.678C556.055 328.076 556.641 333.691 557.812 336.523C559.082 339.258 560.889 341.309 563.232 342.676C565.674 344.043 570.068 344.727 576.416 344.727V350H511.23V344.727C517.773 344.727 522.168 344.092 524.414 342.822C526.66 341.553 528.418 339.453 529.688 336.523C531.055 333.594 531.738 327.979 531.738 319.678V267.969C531.738 253.418 531.299 243.994 530.42 239.697C529.736 236.572 528.662 234.424 527.197 233.252C525.732 231.982 523.73 231.348 521.191 231.348C518.457 231.348 515.137 232.08 511.23 233.545L509.18 228.271L549.609 211.865H556.055Z" fill="#10100E"/>
<path d="M365.164 396.965L368.574 397.826C367.859 400.627 366.57 402.766 364.707 404.242C362.855 405.707 360.588 406.439 357.904 406.439C355.127 406.439 352.865 405.877 351.119 404.752C349.385 403.615 348.061 401.975 347.146 399.83C346.244 397.686 345.793 395.383 345.793 392.922C345.793 390.238 346.303 387.9 347.322 385.908C348.354 383.904 349.812 382.387 351.699 381.355C353.598 380.313 355.684 379.791 357.957 379.791C360.535 379.791 362.703 380.447 364.461 381.76C366.219 383.072 367.443 384.918 368.135 387.297L364.777 388.088C364.18 386.213 363.312 384.848 362.176 383.992C361.039 383.137 359.609 382.709 357.887 382.709C355.906 382.709 354.248 383.184 352.912 384.133C351.588 385.082 350.656 386.359 350.117 387.965C349.578 389.559 349.309 391.205 349.309 392.904C349.309 395.096 349.625 397.012 350.258 398.652C350.902 400.281 351.898 401.5 353.246 402.309C354.594 403.117 356.053 403.522 357.623 403.522C359.533 403.522 361.15 402.971 362.475 401.869C363.799 400.768 364.695 399.133 365.164 396.965ZM376.973 406V380.23H380.383V406H376.973ZM389.977 406V380.23H393.475L407.011 400.463V380.23H410.28V406H406.782L393.247 385.75V406H389.977ZM419.698 406V380.23H438.331V383.272H423.109V391.164H437.364V394.188H423.109V402.959H438.929V406H419.698ZM446.08 397.721L449.296 397.439C449.449 398.729 449.8 399.789 450.351 400.621C450.914 401.441 451.781 402.109 452.953 402.625C454.125 403.129 455.443 403.381 456.908 403.381C458.209 403.381 459.357 403.188 460.353 402.801C461.349 402.414 462.088 401.887 462.568 401.219C463.06 400.539 463.306 399.801 463.306 399.004C463.306 398.195 463.072 397.492 462.603 396.895C462.134 396.285 461.361 395.775 460.283 395.365C459.591 395.096 458.062 394.68 455.695 394.117C453.328 393.543 451.67 393.004 450.72 392.5C449.49 391.855 448.57 391.059 447.961 390.109C447.363 389.148 447.064 388.076 447.064 386.893C447.064 385.592 447.433 384.379 448.171 383.254C448.91 382.117 449.988 381.256 451.406 380.67C452.824 380.084 454.4 379.791 456.134 379.791C458.045 379.791 459.726 380.102 461.179 380.723C462.644 381.332 463.769 382.234 464.554 383.43C465.339 384.625 465.761 385.979 465.82 387.49L462.55 387.736C462.375 386.107 461.777 384.877 460.757 384.045C459.75 383.213 458.255 382.797 456.275 382.797C454.213 382.797 452.707 383.178 451.757 383.939C450.82 384.689 450.351 385.598 450.351 386.664C450.351 387.59 450.685 388.352 451.353 388.949C452.009 389.547 453.72 390.162 456.486 390.795C459.263 391.416 461.168 391.961 462.199 392.43C463.699 393.121 464.806 394 465.521 395.066C466.236 396.121 466.593 397.34 466.593 398.723C466.593 400.094 466.201 401.389 465.416 402.607C464.63 403.814 463.5 404.758 462.023 405.438C460.558 406.105 458.906 406.439 457.066 406.439C454.734 406.439 452.777 406.1 451.195 405.42C449.625 404.74 448.388 403.721 447.486 402.361C446.595 400.99 446.127 399.443 446.08 397.721ZM495.836 406L485.852 380.23H489.543L496.241 398.951C496.78 400.451 497.231 401.857 497.594 403.17C497.993 401.764 498.455 400.357 498.983 398.951L505.944 380.23H509.424L499.334 406H495.836ZM516.663 406V380.23H520.073V406H516.663ZM536.259 406V383.272H527.769V380.23H548.195V383.272H539.669V406H536.259ZM553.605 393.449C553.605 389.172 554.754 385.826 557.05 383.412C559.347 380.986 562.312 379.773 565.945 379.773C568.324 379.773 570.468 380.342 572.379 381.479C574.289 382.615 575.742 384.203 576.738 386.242C577.746 388.27 578.25 390.572 578.25 393.15C578.25 395.764 577.722 398.102 576.668 400.164C575.613 402.227 574.119 403.791 572.185 404.857C570.252 405.912 568.166 406.439 565.927 406.439C563.502 406.439 561.334 405.854 559.423 404.682C557.513 403.51 556.066 401.91 555.082 399.883C554.097 397.855 553.605 395.711 553.605 393.449ZM557.121 393.502C557.121 396.607 557.953 399.057 559.617 400.85C561.293 402.631 563.39 403.522 565.91 403.522C568.476 403.522 570.586 402.619 572.238 400.814C573.902 399.01 574.734 396.449 574.734 393.133C574.734 391.035 574.377 389.207 573.662 387.648C572.959 386.078 571.921 384.865 570.55 384.01C569.191 383.143 567.662 382.709 565.962 382.709C563.548 382.709 561.468 383.541 559.722 385.205C557.988 386.857 557.121 389.623 557.121 393.502ZM586.314 406V380.23H597.74C600.037 380.23 601.783 380.465 602.979 380.934C604.174 381.391 605.129 382.205 605.844 383.377C606.559 384.549 606.916 385.844 606.916 387.262C606.916 389.09 606.324 390.631 605.141 391.885C603.957 393.139 602.129 393.936 599.656 394.275C600.559 394.709 601.244 395.137 601.713 395.559C602.709 396.473 603.652 397.615 604.543 398.986L609.025 406H604.736L601.326 400.639C600.33 399.092 599.51 397.908 598.865 397.088C598.221 396.268 597.641 395.693 597.125 395.365C596.621 395.037 596.105 394.809 595.578 394.68C595.191 394.598 594.559 394.557 593.68 394.557H589.725V406H586.314ZM589.725 391.604H597.055C598.613 391.604 599.832 391.445 600.711 391.129C601.59 390.801 602.258 390.285 602.715 389.582C603.172 388.867 603.4 388.094 603.4 387.262C603.4 386.043 602.955 385.041 602.064 384.256C601.186 383.471 599.791 383.078 597.881 383.078H589.725V391.604ZM616.457 406V380.23H619.868V406H616.457ZM626.667 406L636.563 380.23H640.237L650.784 406H646.899L643.893 398.195H633.118L630.288 406H626.667ZM634.102 395.418H642.839L640.149 388.281C639.329 386.113 638.72 384.332 638.321 382.938C637.993 384.59 637.53 386.23 636.932 387.859L634.102 395.418ZM667.089 398.266V395.084H676.81V398.266H667.089ZM709.991 395.893V392.869L720.907 392.852V402.414C719.231 403.75 717.502 404.758 715.721 405.438C713.94 406.105 712.112 406.439 710.237 406.439C707.705 406.439 705.403 405.9 703.329 404.822C701.266 403.732 699.707 402.162 698.653 400.111C697.598 398.061 697.071 395.77 697.071 393.238C697.071 390.73 697.592 388.393 698.635 386.225C699.69 384.045 701.202 382.428 703.17 381.373C705.139 380.318 707.407 379.791 709.973 379.791C711.836 379.791 713.518 380.096 715.018 380.705C716.53 381.303 717.713 382.141 718.569 383.219C719.424 384.297 720.075 385.703 720.52 387.438L717.444 388.281C717.057 386.969 716.577 385.938 716.002 385.188C715.428 384.438 714.608 383.84 713.541 383.395C712.475 382.938 711.291 382.709 709.991 382.709C708.432 382.709 707.084 382.949 705.948 383.43C704.811 383.898 703.891 384.52 703.188 385.293C702.496 386.066 701.957 386.916 701.571 387.842C700.914 389.436 700.586 391.164 700.586 393.027C700.586 395.324 700.979 397.246 701.764 398.793C702.561 400.34 703.715 401.488 705.227 402.238C706.739 402.988 708.344 403.363 710.043 403.363C711.52 403.363 712.961 403.082 714.368 402.52C715.774 401.945 716.84 401.336 717.567 400.691V395.893H709.991ZM726.721 406L736.618 380.23H740.292L750.839 406H746.954L743.948 398.195H733.173L730.343 406H726.721ZM734.157 395.418H742.893L740.204 388.281C739.384 386.113 738.774 384.332 738.376 382.938C738.048 384.59 737.585 386.23 736.987 387.859L734.157 395.418ZM756.003 397.721L759.22 397.439C759.372 398.729 759.724 399.789 760.275 400.621C760.837 401.441 761.704 402.109 762.876 402.625C764.048 403.129 765.366 403.381 766.831 403.381C768.132 403.381 769.28 403.188 770.277 402.801C771.273 402.414 772.011 401.887 772.491 401.219C772.984 400.539 773.23 399.801 773.23 399.004C773.23 398.195 772.995 397.492 772.527 396.895C772.058 396.285 771.284 395.775 770.206 395.365C769.515 395.096 767.986 394.68 765.618 394.117C763.251 393.543 761.593 393.004 760.644 392.5C759.413 391.855 758.493 391.059 757.884 390.109C757.286 389.148 756.987 388.076 756.987 386.893C756.987 385.592 757.357 384.379 758.095 383.254C758.833 382.117 759.911 381.256 761.329 380.67C762.747 380.084 764.323 379.791 766.058 379.791C767.968 379.791 769.65 380.102 771.103 380.723C772.568 381.332 773.693 382.234 774.478 383.43C775.263 384.625 775.685 385.979 775.743 387.49L772.474 387.736C772.298 386.107 771.7 384.877 770.681 384.045C769.673 383.213 768.179 382.797 766.198 382.797C764.136 382.797 762.63 383.178 761.681 383.939C760.743 384.689 760.275 385.598 760.275 386.664C760.275 387.59 760.609 388.352 761.277 388.949C761.933 389.547 763.644 390.162 766.409 390.795C769.187 391.416 771.091 391.961 772.122 392.43C773.622 393.121 774.73 394 775.445 395.066C776.159 396.121 776.517 397.34 776.517 398.723C776.517 400.094 776.124 401.389 775.339 402.607C774.554 403.814 773.423 404.758 771.946 405.438C770.482 406.105 768.829 406.439 766.989 406.439C764.657 406.439 762.7 406.1 761.118 405.42C759.548 404.74 758.312 403.721 757.409 402.361C756.519 400.99 756.05 399.443 756.003 397.721ZM791.332 406V383.272H782.841V380.23H803.267V383.272H794.742V406H791.332ZM810.453 406V380.23H829.086V383.272H813.863V391.164H828.119V394.188H813.863V402.959H829.684V406H810.453ZM838.575 406V380.23H841.985V406H838.575ZM849.557 406V402.836L862.759 386.33C863.696 385.158 864.587 384.139 865.43 383.272H851.052V380.23H869.509V383.272L855.042 401.148L853.477 402.959H869.93V406H849.557Z" fill="#151414"/>
</svg>
