<svg width="1372" height="676" viewBox="0 0 1372 676" fill="none" xmlns="http://www.w3.org/2000/svg">
<circle cx="1140.65" cy="278.402" r="231.071" fill="#02131B"/>
<path fill-rule="evenodd" clip-rule="evenodd" d="M1319.85 520.368C1291.34 541.707 1258.5 558.181 1222.17 568.254C1064.33 612.026 900.547 518.338 856.361 358.995C826.498 251.304 858.903 141.187 931.777 67.5993C836.416 138.987 789.633 264.81 823.651 387.484C867.838 546.827 1031.62 640.516 1189.47 596.744C1240.63 582.555 1284.9 555.663 1319.85 520.368Z" fill="black"/>
<path d="M134.28 193.8C124.8 193.8 117.54 191.1 112.5 185.7C107.58 180.3 105.12 172.68 105.12 162.84V95.16C105.12 85.32 107.58 77.7 112.5 72.3C117.54 66.9 124.8 64.2 134.28 64.2C143.76 64.2 150.96 66.9 155.88 72.3C160.92 77.7 163.44 85.32 163.44 95.16V108.48H144.72V93.9C144.72 86.1 141.42 82.2 134.82 82.2C128.22 82.2 124.92 86.1 124.92 93.9V164.28C124.92 171.96 128.22 175.8 134.82 175.8C141.42 175.8 144.72 171.96 144.72 164.28V145.02H163.44V162.84C163.44 172.68 160.92 180.3 155.88 185.7C150.96 191.1 143.76 193.8 134.28 193.8ZM175.286 66H195.086V192H175.286V66ZM209.915 66H234.755L254.015 141.42H254.375V66H272.015V192H251.675L227.915 100.02H227.555V192H209.915V66ZM286.732 66H340.732V84H306.532V117.3H333.712V135.3H306.532V174H340.732V192H286.732V66ZM378.214 193.8C368.614 193.8 361.354 191.1 356.434 185.7C351.514 180.18 349.054 172.32 349.054 162.12V154.92H367.774V163.56C367.774 171.72 371.194 175.8 378.034 175.8C381.394 175.8 383.914 174.84 385.594 172.92C387.394 170.88 388.294 167.64 388.294 163.2C388.294 157.92 387.094 153.3 384.694 149.34C382.294 145.26 377.854 140.4 371.374 134.76C363.214 127.56 357.514 121.08 354.274 115.32C351.034 109.44 349.414 102.84 349.414 95.52C349.414 85.56 351.934 77.88 356.974 72.48C362.014 66.96 369.334 64.2 378.934 64.2C388.414 64.2 395.554 66.96 400.354 72.48C405.274 77.88 407.734 85.68 407.734 95.88V101.1H389.014V94.62C389.014 90.3 388.174 87.18 386.494 85.26C384.814 83.22 382.354 82.2 379.114 82.2C372.514 82.2 369.214 86.22 369.214 94.26C369.214 98.82 370.414 103.08 372.814 107.04C375.334 111 379.834 115.8 386.314 121.44C394.594 128.64 400.294 135.18 403.414 141.06C406.534 146.94 408.094 153.84 408.094 161.76C408.094 172.08 405.514 180 400.354 185.52C395.314 191.04 387.934 193.8 378.214 193.8Z" fill="#030303"/>
<path d="M59.1 420C43.1 420 30.9 415.5 22.5 406.5C14.1 397.3 9.9 384.2 9.9 367.2V256.8C9.9 239.8 14.1 226.8 22.5 217.8C30.9 208.6 43.1 204 59.1 204C75.1 204 87.3 208.6 95.7 217.8C104.1 226.8 108.3 239.8 108.3 256.8V274.8H77.1V254.7C77.1 240.9 71.4 234 60 234C48.6 234 42.9 240.9 42.9 254.7V369.6C42.9 383.2 48.6 390 60 390C71.4 390 77.1 383.2 77.1 369.6V328.5H60.6V298.5H108.3V367.2C108.3 384.2 104.1 397.3 95.7 406.5C87.3 415.5 75.1 420 59.1 420ZM177.188 420C160.988 420 148.588 415.4 139.988 406.2C131.388 397 127.087 384 127.087 367.2V256.8C127.087 240 131.388 227 139.988 217.8C148.588 208.6 160.988 204 177.188 204C193.388 204 205.788 208.6 214.388 217.8C222.988 227 227.288 240 227.288 256.8V367.2C227.288 384 222.988 397 214.388 406.2C205.788 415.4 193.388 420 177.188 420ZM177.188 390C188.588 390 194.287 383.1 194.287 369.3V254.7C194.287 240.9 188.588 234 177.188 234C165.788 234 160.088 240.9 160.088 254.7V369.3C160.088 383.1 165.788 390 177.188 390ZM249.605 207H298.505C315.505 207 327.905 211 335.705 219C343.505 226.8 347.405 238.9 347.405 255.3V268.2C347.405 290 340.205 303.8 325.805 309.6V310.2C333.805 312.6 339.405 317.5 342.605 324.9C346.005 332.3 347.705 342.2 347.705 354.6V391.5C347.705 397.5 347.905 402.4 348.305 406.2C348.705 409.8 349.705 413.4 351.305 417H317.705C316.505 413.6 315.705 410.4 315.305 407.4C314.905 404.4 314.705 399 314.705 391.2V352.8C314.705 343.2 313.105 336.5 309.905 332.7C306.905 328.9 301.605 327 294.005 327H282.605V417H249.605V207ZM294.605 297C301.205 297 306.105 295.3 309.305 291.9C312.705 288.5 314.405 282.8 314.405 274.8V258.6C314.405 251 313.005 245.5 310.205 242.1C307.605 238.7 303.405 237 297.605 237H282.605V297H294.605ZM370.601 207H420.401C437.401 207 449.801 211 457.601 219C465.401 226.8 469.301 238.9 469.301 255.3V263.7C469.301 274.5 467.501 283.3 463.901 290.1C460.501 296.9 455.201 301.8 448.001 304.8V305.4C464.401 311 472.601 325.6 472.601 349.2V367.2C472.601 383.4 468.301 395.8 459.701 404.4C451.301 412.8 438.901 417 422.501 417H370.601V207ZM416.501 292.5C423.101 292.5 428.001 290.8 431.201 287.4C434.601 284 436.301 278.3 436.301 270.3V258.6C436.301 251 434.901 245.5 432.101 242.1C429.501 238.7 425.301 237 419.501 237H403.601V292.5H416.501ZM422.501 387C428.301 387 432.601 385.5 435.401 382.5C438.201 379.3 439.601 373.9 439.601 366.3V348C439.601 338.4 437.901 331.8 434.501 328.2C431.301 324.4 425.901 322.5 418.301 322.5H403.601V387H422.501ZM491.89 207H581.89V237H524.89V292.5H570.19V322.5H524.89V387H581.89V417H491.89V207ZM600.874 207H633.874V417H600.874V207ZM684.089 207H728.789L762.989 417H729.989L723.989 375.3V375.9H686.489L680.489 417H649.889L684.089 207ZM720.089 347.4L705.389 243.6H704.789L690.389 347.4H720.089Z" fill="#030303"/>
<path d="M194.42 552.36L231.14 462H196.22V444H252.38V461.64L215.66 552H252.38V570H194.42V552.36ZM263.595 444H283.395V570H263.595V444ZM298.224 444H323.064L342.324 519.42H342.684V444H360.324V570H339.984L316.224 478.02H315.864V570H298.224V444ZM375.04 444H429.04V462H394.84V495.3H422.02V513.3H394.84V552H429.04V570H375.04V444ZM440.431 444H468.691L481.291 534.18H481.651L494.251 444H522.511V570H503.791V474.6H503.431L489.031 570H472.471L458.071 474.6H457.711V570H440.431V444ZM552.586 444H579.406L599.926 570H580.126L576.526 544.98V545.34H554.026L550.426 570H532.066L552.586 444ZM574.186 528.24L565.366 465.96H565.006L556.366 528.24H574.186ZM609.532 444H629.332V497.1L654.532 444H674.332L650.752 490.26L674.692 570H653.992L637.252 513.84L629.332 529.86V570H609.532V444Z" fill="#030303"/>
</svg>
