<svg width="157" height="157" viewBox="0 0 157 157" fill="none" xmlns="http://www.w3.org/2000/svg">
<g clip-path="url(#clip0_47_5)">
<path d="M78.0752 155.359C120.752 155.359 155.349 120.763 155.349 78.086C155.349 35.4091 120.752 0.812606 78.0752 0.812606C35.3983 0.812606 0.801819 35.4091 0.801819 78.086C0.801819 120.763 35.3983 155.359 78.0752 155.359Z" fill="#D41F1C"/>
<path d="M35.9003 92.9472H22.4293C21.3914 92.9472 20.6925 92.8729 20.3324 92.7242C19.9723 92.5755 19.7923 92.3419 19.7923 92.0232V71.8545C19.7923 71.3023 19.7923 70.8372 19.7923 70.3252C20.4475 70.282 21.9315 70.3252 23.2236 70.3252H35.9956C36.4404 70.3252 36.6628 71.0686 36.6628 72.5555C36.6628 74.0212 36.5675 75.147 36.3769 75.9329C36.1862 76.6976 35.9321 77.0799 35.6144 77.0799C34.2376 77.0799 31.9183 76.9419 28.6565 76.6657V78.8005C31.7912 78.673 33.8352 78.6093 34.7883 78.6093C35.3602 78.6093 35.6461 79.2784 35.6461 80.6166C35.6461 81.9548 35.5296 82.9744 35.2966 83.6754C35.0848 84.3551 34.7883 84.695 34.407 84.695L28.6565 84.5675V86.6067C32.3419 86.3305 34.8836 86.1925 36.2816 86.1925C36.7264 86.1925 36.9488 86.9359 36.9488 88.4228C36.9488 89.9097 36.8534 91.0355 36.6628 91.8002C36.4722 92.5649 36.218 92.9472 35.9003 92.9472Z" fill="#FFE200"/>
<path d="M41.8527 92.9472C40.7936 92.9472 40.0841 92.8941 39.724 92.7879C39.3639 92.6605 39.1839 92.4587 39.1839 92.1826V72.3643C39.1839 71.897 39.1839 71.1784 39.2457 70.2933C40.5953 70.2933 43.6319 70.2933 45.1569 70.2933C46.5125 70.2933 47.3603 70.2933 48.0057 70.354C48.0481 70.5642 48.0481 71.5784 48.0481 71.7908V85.9057C50.6321 85.7358 52.5808 85.6508 53.894 85.6508C54.3388 85.6508 54.5612 86.3624 54.5612 87.7856C54.5612 89.1875 54.4659 90.3983 54.2752 91.4179C54.0846 92.4374 53.8304 92.9472 53.5127 92.9472H41.8527Z" fill="#FFE200"/>
<path d="M79.5192 92.7242C78.672 92.9154 77.8036 93.0428 76.914 93.1066C76.0456 93.1915 75.1878 93.234 74.3405 93.234C73.5145 93.234 72.8685 93.2128 72.4025 93.1703C71.9577 93.1278 71.3646 93.0216 70.6233 92.8517C69.882 92.6817 69.2042 92.4481 68.5899 92.1507C67.9757 91.8533 67.3191 91.4179 66.6201 90.8443C65.9423 90.2708 65.3705 89.5911 64.9045 88.8052C63.8242 86.9784 63.2841 84.6206 63.2841 81.7318C63.2841 79.7988 63.5807 78.0889 64.1737 76.602C64.788 75.1151 65.5187 73.9681 66.366 73.1609C67.2344 72.3537 68.2193 71.7059 69.3207 71.2173C71.0999 70.4101 72.822 70.2935 74.6224 70.2935C77.2064 70.2935 79.1274 70.219 80.25 70.6438C80.7583 70.835 81.2137 71.1323 81.6162 71.5359C82.0186 71.9395 82.2198 72.5236 82.2198 73.2883C82.2198 74.053 82.0292 75.0195 81.6479 76.1878C81.2879 77.3561 80.7583 77.9402 80.0594 77.9402C79.8476 77.9402 79.0639 77.7703 77.7083 77.4304C76.3527 77.0905 75.4314 76.9206 74.9442 76.9206C74.2029 76.9206 73.5674 77.3348 73.0379 78.1632C72.5296 78.9916 72.2754 80.1705 72.2754 81.6999C72.2754 83.2293 72.4978 84.4188 72.9426 85.2685C73.4086 86.1181 74.0122 86.543 74.7536 86.543C75.2831 86.543 76.2362 86.3305 77.613 85.9057C79.0109 85.4596 79.8264 85.2366 80.0594 85.2366C80.716 85.2366 81.2243 85.842 81.5844 87.0528C81.9656 88.2635 82.1563 89.2406 82.1563 89.9841C82.1563 90.7275 81.9233 91.3223 81.4573 91.7683C81.0125 92.1932 80.3665 92.5118 79.5192 92.7242Z" fill="#FFE200"/>
<path d="M93.3159 92.1826C93.3159 92.4162 92.6699 92.6074 91.3779 92.7561C90.0858 92.8835 88.7832 92.9472 87.47 92.9472C86.178 92.9472 85.3519 92.8941 84.9918 92.7879C84.6318 92.6605 84.4517 92.4587 84.4517 92.1826V72.3643C84.4517 71.897 84.4517 71.0631 84.5285 70.2932C86.0546 70.2933 88.8997 70.2933 90.4247 70.2933C91.7803 70.2933 92.7009 70.3342 93.3159 70.3634C93.3159 70.6306 93.3159 71.5784 93.3159 71.7908V92.1826Z" fill="#FFE200"/>
<path d="M104.734 92.0232C104.734 92.2994 104.077 92.5224 102.764 92.6923C101.472 92.8623 100.18 92.9472 98.8878 92.9472C97.5958 92.9472 96.7697 92.8729 96.4097 92.7242C96.0496 92.5755 95.8696 92.3419 95.8696 92.0232V72.4599C95.8696 71.9289 96.3809 71.0897 97.5882 70.6436C98.8167 70.1976 100.296 70.3252 101.843 70.3252C102.394 70.3252 102.807 70.3464 103.082 70.3889C103.802 70.4951 104.31 70.9518 104.607 71.759L107.657 79.9794H107.784V72.4599C107.784 71.9289 108.196 70.835 109.403 70.3889C111.101 70.3251 112.179 70.3252 113.725 70.3252C115.06 70.3252 115.907 70.5801 116.267 71.0899C116.521 71.451 116.648 71.7802 116.648 72.0776V92.0232C116.648 92.2994 115.992 92.5224 114.678 92.6923C113.386 92.8623 111.957 92.9472 110.389 92.9472C108.843 92.9472 107.996 92.7454 107.848 92.3419L104.893 84.5038H104.734V92.0232Z" fill="#FFE200"/>
<path d="M135.31 92.9472H121.839C120.801 92.9472 120.102 92.8729 119.742 92.7242C119.382 92.5755 119.202 92.3419 119.202 92.0232V71.8545C119.202 71.3023 119.445 70.9093 119.933 70.6756C120.441 70.442 121.341 70.3252 122.633 70.3252H135.405C135.85 70.3252 136.072 71.0686 136.072 72.5555C136.072 74.0212 135.977 75.147 135.786 75.9329C135.596 76.6976 135.342 77.0799 135.024 77.0799C133.647 77.0799 131.328 76.9419 128.066 76.6657V78.8005C131.201 78.673 133.245 78.6093 134.198 78.6093C134.77 78.6093 135.056 79.2784 135.056 80.6166C135.056 81.9548 134.939 82.9744 134.706 83.6754C134.494 84.3551 134.198 84.695 133.817 84.695L128.066 84.5675V86.6067C131.752 86.3305 134.293 86.1925 135.691 86.1925C136.136 86.1925 136.358 86.9359 136.358 88.4228C136.358 89.9097 136.263 91.0355 136.072 91.8002C135.882 92.5649 135.628 92.9472 135.31 92.9472Z" fill="#FFE200"/>
<path d="M75.0141 117.313H65.217C64.4622 117.313 63.9538 117.251 63.6919 117.128C63.4301 117.005 63.2991 116.812 63.2991 116.548V99.8501C63.2991 99.3928 63.4763 99.0675 63.8306 98.874C64.2003 98.6806 64.855 98.5839 65.7946 98.5839H75.0834C75.4069 98.5839 75.5686 99.1994 75.5686 100.43C75.5686 101.643 75.4993 102.576 75.3606 103.226C75.222 103.859 75.0372 104.176 74.8061 104.176C73.8048 104.176 72.1181 104.062 69.7458 103.833V105.6C72.0256 105.495 73.5121 105.442 74.2053 105.442C74.6212 105.442 74.8292 105.996 74.8292 107.104C74.8292 108.212 74.7445 109.056 74.575 109.636C74.421 110.199 74.2053 110.481 73.9281 110.481L69.7458 110.375V112.063C72.4261 111.835 74.2746 111.72 75.2913 111.72C75.6148 111.72 75.7766 112.336 75.7766 113.567C75.7766 114.798 75.7072 115.73 75.5686 116.363C75.43 116.996 75.2451 117.313 75.0141 117.313Z" fill="#FFE200"/>
<path d="M78.3033 117.313C77.5331 117.313 77.017 117.269 76.7552 117.181C76.4933 117.075 76.3624 116.908 76.3624 116.68V100.272C76.3624 99.8853 76.8091 99.5072 77.7025 99.1378C78.596 98.7509 79.5972 98.5575 80.7063 98.5575C81.6922 98.5575 82.3392 98.7949 82.6473 99.2697C82.7551 99.4456 82.809 99.6215 82.809 99.7973V111.483C84.6883 111.342 86.1055 111.272 87.0606 111.272C87.3841 111.272 87.5458 111.861 87.5458 113.039C87.5458 114.2 87.4765 115.202 87.3379 116.047C87.1992 116.891 87.0144 117.313 86.7833 117.313H78.3033Z" fill="#FFE200"/>
<path d="M94.3378 116.68C94.3378 116.873 93.868 117.031 92.9283 117.155C91.9887 117.26 91.0413 117.313 90.0863 117.313C89.1466 117.313 88.5458 117.269 88.284 117.181C88.0221 117.075 87.8912 116.908 87.8912 116.68V100.272C87.8912 99.8853 88.3379 99.5072 89.2313 99.1378C90.1248 98.7509 91.126 98.5575 92.2352 98.5575C93.221 98.5575 93.868 98.7949 94.1761 99.2697C94.2839 99.4456 94.3378 99.6215 94.3378 99.7973V116.68Z" fill="#FFE200"/>
<path d="M100.169 117.524C99.6456 117.524 99.1603 117.462 98.7136 117.339C98.2669 117.216 97.797 116.961 97.3041 116.574C96.8266 116.17 96.4184 115.642 96.0795 114.991C95.3093 113.514 94.9242 111.29 94.9242 108.317C94.9242 106.682 95.1167 105.24 95.5018 103.991C95.8869 102.743 96.3722 101.775 96.9575 101.09C97.5429 100.386 98.2438 99.8149 99.0602 99.3753C99.8766 98.9356 100.639 98.6542 101.348 98.5311C102.057 98.3904 102.811 98.3201 103.612 98.3201C105.461 98.3201 106.763 98.5047 107.517 98.874C108.272 99.2258 108.65 99.9116 108.65 100.931C108.65 101.74 108.519 102.62 108.257 103.569C107.995 104.501 107.61 104.967 107.102 104.967C106.978 104.967 106.455 104.835 105.53 104.572C104.606 104.29 103.913 104.15 103.451 104.15C102.126 104.15 101.464 105.425 101.464 107.975C101.464 109.258 101.618 110.217 101.926 110.85C102.234 111.465 102.619 111.808 103.081 111.879V109.505C103.081 109.065 103.474 108.66 104.259 108.291C105.045 107.922 105.8 107.737 106.524 107.737C107.248 107.737 107.772 107.79 108.095 107.895C108.434 108.001 108.665 108.15 108.788 108.344C109.004 108.66 109.112 108.942 109.112 109.188V116.495C109.112 116.724 108.704 116.908 107.887 117.049C107.086 117.19 106.247 117.26 105.369 117.26C104.506 117.26 103.959 117.216 103.728 117.128C103.497 117.023 103.366 116.75 103.335 116.31L103.173 114.754H102.989C102.881 115.51 102.603 116.161 102.157 116.706C101.725 117.251 101.063 117.524 100.169 117.524Z" fill="#FFE200"/>
<path d="M121.4 117.313H111.603C110.848 117.313 110.34 117.251 110.078 117.128C109.816 117.005 109.685 116.812 109.685 116.548V99.8501C109.685 99.3928 109.863 99.0675 110.217 98.874C110.587 98.6806 111.241 98.5839 112.181 98.5839H121.47C121.793 98.5839 121.955 99.1994 121.955 100.43C121.955 101.643 121.886 102.576 121.747 103.226C121.608 103.859 121.423 104.176 121.192 104.176C120.191 104.176 118.504 104.062 116.132 103.833V105.6C118.412 105.495 119.898 105.442 120.592 105.442C121.008 105.442 121.216 105.996 121.216 107.104C121.216 108.212 121.131 109.056 120.961 109.636C120.807 110.199 120.592 110.481 120.314 110.481L116.132 110.375V112.063C118.812 111.835 120.661 111.72 121.678 111.72C122.001 111.72 122.163 112.336 122.163 113.567C122.163 114.798 122.094 115.73 121.955 116.363C121.816 116.996 121.631 117.313 121.4 117.313Z" fill="#FFE200"/>
<path d="M134.51 116.205C134.048 116.592 133.401 116.917 132.569 117.181C131.752 117.427 130.69 117.55 129.38 117.55C128.086 117.55 126.854 117.427 125.683 117.181C124.512 116.935 123.673 116.662 123.165 116.363C122.656 116.064 122.402 115.774 122.402 115.493C122.402 114.508 122.525 113.488 122.772 112.433C123.018 111.36 123.311 110.824 123.65 110.824C123.711 110.824 124.351 111.061 125.568 111.536C126.785 112.011 127.701 112.248 128.317 112.248C128.933 112.248 129.334 112.178 129.519 112.037C129.704 111.879 129.796 111.659 129.796 111.377C129.796 111.096 129.627 110.85 129.288 110.639C128.949 110.41 128.525 110.217 128.017 110.059C127.509 109.883 126.954 109.636 126.353 109.32C125.768 109.003 125.221 108.652 124.713 108.265C124.204 107.878 123.781 107.333 123.442 106.629C123.103 105.908 122.934 105.09 122.934 104.176C122.934 100.272 124.975 98.3201 129.057 98.3201C130.582 98.3201 131.899 98.4344 133.008 98.663C134.117 98.874 134.895 99.1203 135.342 99.4016C135.804 99.6654 136.035 99.9292 136.035 100.193C136.035 101.107 135.842 102.092 135.457 103.147C135.087 104.202 134.725 104.73 134.371 104.73C134.31 104.73 134.109 104.651 133.77 104.492C132.754 103.982 131.907 103.727 131.229 103.727C130.566 103.727 130.112 103.798 129.865 103.938C129.634 104.079 129.519 104.299 129.519 104.598C129.519 104.879 129.688 105.117 130.027 105.31C130.366 105.486 130.782 105.653 131.275 105.811C131.783 105.952 132.33 106.181 132.915 106.497C133.516 106.796 134.071 107.157 134.579 107.579C135.087 107.983 135.511 108.564 135.85 109.32C136.189 110.076 136.358 110.955 136.358 111.958C136.358 113.013 136.12 113.971 135.642 114.833C135.349 115.361 134.972 115.818 134.51 116.205Z" fill="#FFE200"/>
<path d="M24.5687 117.55C23.886 117.55 23.2924 117.446 22.7878 117.238C22.2833 117.021 21.8826 116.724 21.5857 116.345C20.9995 115.596 20.7064 114.635 20.7064 113.46C20.7064 112.974 20.7361 112.545 20.7955 112.174C20.8548 111.796 20.9699 111.425 21.1405 111.062C21.3038 110.691 21.5227 110.39 21.7972 110.158C22.4131 109.633 23.2887 109.371 24.424 109.371C25.5593 109.371 26.4572 109.544 27.1176 109.892C27.7706 110.24 28.2158 110.726 28.4532 111.352C29.0023 111.004 29.3214 110.83 29.4105 110.83C29.5737 110.83 29.711 110.915 29.8223 111.085C29.941 111.255 30.0263 111.472 30.0783 111.734C30.1747 112.221 30.223 112.63 30.223 112.962C30.223 113.294 30.1896 113.526 30.1228 113.657C30.0634 113.781 29.9373 113.885 29.7444 113.97L28.7204 114.468C28.7204 115.411 28.3865 116.16 27.7186 116.716C27.0434 117.272 25.9934 117.55 24.5687 117.55ZM26.5499 113.993C26.8987 113.878 27.0731 113.7 27.0731 113.46C27.0731 113.221 26.8987 113.043 26.5499 112.928C26.1938 112.812 25.6372 112.754 24.8804 112.754C24.1161 112.754 23.5707 112.785 23.2442 112.846C22.9103 112.908 22.6988 112.985 22.6097 113.078C22.5133 113.171 22.4651 113.298 22.4651 113.46C22.4651 113.623 22.5096 113.75 22.5986 113.843C22.8212 114.059 23.4482 114.167 24.4797 114.167C25.5037 114.167 26.1938 114.109 26.5499 113.993Z" fill="#FFE200"/>
<path d="M25.615 101.19C26.6835 101.19 27.4849 101.51 28.0191 102.151C28.546 102.785 28.8094 103.708 28.8094 104.92C28.8094 106.125 28.546 107.052 28.0191 107.701C27.4849 108.35 26.6835 108.674 25.615 108.674H21.5301C21.3446 108.674 21.1776 108.458 21.0292 108.025C20.8808 107.585 20.8066 107.075 20.8066 106.496C20.8066 106.033 20.8919 105.731 21.0626 105.592C21.1962 105.492 21.3112 105.442 21.4077 105.442H24.7245C25.563 105.442 26.1195 105.411 26.3941 105.349C26.6612 105.28 26.7948 105.137 26.7948 104.92C26.7948 104.704 26.6649 104.569 26.4052 104.515C26.1381 104.453 25.5742 104.422 24.7134 104.422H21.5301C21.3446 104.422 21.1776 104.206 21.0292 103.773C20.8808 103.333 20.8066 102.827 20.8066 102.256C20.8066 101.769 20.8919 101.46 21.0626 101.329C21.1962 101.236 21.3112 101.19 21.4077 101.19H25.615Z" fill="#FFE200"/>
<path d="M28.7204 94.3937V99.3062C28.7204 99.6847 28.6944 99.9396 28.6425 100.071C28.5905 100.202 28.5089 100.268 28.3976 100.268H21.352C21.1591 100.268 21.0218 100.179 20.9402 100.001C20.8586 99.816 20.8177 99.4877 20.8177 99.0166V94.3589C20.8177 94.1967 21.0775 94.1156 21.5969 94.1156C22.1089 94.1156 22.5022 94.1504 22.7767 94.2199C23.0438 94.2894 23.1774 94.3821 23.1774 94.498C23.1774 95 23.1292 95.8458 23.0327 97.0353H23.7784C23.7339 95.8922 23.7117 95.1468 23.7117 94.7992C23.7117 94.5906 23.9454 94.4864 24.4129 94.4864C24.8804 94.4864 25.2365 94.5288 25.4814 94.6138C25.7189 94.6911 25.8376 94.7992 25.8376 94.9382L25.7931 97.0353H26.5054C26.4089 95.6913 26.3607 94.7644 26.3607 94.2546C26.3607 94.0924 26.6204 94.0113 27.1398 94.0113C27.6593 94.0113 28.0525 94.0461 28.3197 94.1156C28.5868 94.1851 28.7204 94.2778 28.7204 94.3937Z" fill="#FFE200"/>
<path d="M40.5053 116.706C40.5053 116.9 40.0278 117.058 39.0727 117.181C38.1331 117.287 37.1857 117.339 36.2306 117.339C35.291 117.339 34.6902 117.295 34.4283 117.207C34.1819 117.102 34.0586 116.935 34.0586 116.706V105.363H30.8469C30.6774 105.363 30.5311 105.117 30.4078 104.624C30.2846 104.132 30.223 103.402 30.223 102.435C30.223 101.45 30.3154 100.571 30.5003 99.7974C30.6851 99.006 30.9316 98.6103 31.2397 98.6103H43.7402C43.9713 98.6103 44.1253 98.8565 44.2023 99.3489C44.2948 99.8414 44.341 100.553 44.341 101.485C44.341 102.417 44.2562 103.297 44.0868 104.123C43.9174 104.95 43.6863 105.363 43.3936 105.363H40.5053V116.706Z" fill="#FFE200"/>
<path d="M59.7383 109.979C59.7383 112.512 59.099 114.411 57.8205 115.677C56.5573 116.926 54.7165 117.55 52.298 117.55C49.895 117.55 48.0465 116.926 46.7525 115.677C45.4586 114.411 44.8116 112.512 44.8116 109.979V100.298C44.8116 99.8589 45.2429 99.4633 46.1055 99.1115C46.9836 98.7598 48.0003 98.5839 49.1556 98.5839C50.0798 98.5839 50.6806 98.7862 50.9579 99.1907C51.1581 99.5072 51.2583 99.7798 51.2583 100.008V107.869C51.2583 109.856 51.3199 111.175 51.4431 111.826C51.5817 112.459 51.8667 112.776 52.298 112.776C52.7294 112.776 52.9989 112.468 53.1068 111.852C53.23 111.219 53.2916 109.883 53.2916 107.843V100.298C53.2916 99.8589 53.7229 99.4633 54.5856 99.1115C55.4636 98.7598 56.4726 98.5839 57.6125 98.5839C58.583 98.5839 59.1914 98.7862 59.4379 99.1907C59.6382 99.5072 59.7383 99.7798 59.7383 100.008V109.979ZM49.7332 93.3345C50.6729 93.3345 51.7127 93.5982 52.8526 94.1258C54.0079 94.6358 54.5856 95.1722 54.5856 95.735C54.5856 96.2801 54.4623 96.7638 54.2159 97.1858C53.9848 97.6079 53.7229 97.8189 53.4303 97.8189C52.5522 97.8189 51.4431 97.7222 50.1029 97.5288C48.7782 97.3177 48.1158 97.0803 48.1158 96.8165C48.1158 95.8317 48.2929 95.0051 48.6472 94.3369C49.0169 93.6686 49.3789 93.3345 49.7332 93.3345Z" fill="#FFE200"/>
<mask id="mask0_47_5" style="mask-type:luminance" maskUnits="userSpaceOnUse" x="16" y="31" width="121" height="39">
<path d="M133.376 31.3793L16.5094 52.3676L19.4915 69.5934L136.358 48.6051L133.376 31.3793Z" fill="white"/>
</mask>
<g mask="url(#mask0_47_5)">
<path fill-rule="evenodd" clip-rule="evenodd" d="M103.964 36.6614L95.2416 38.2279L103.719 54.4668L112.441 52.9004L103.964 36.6614ZM122.877 51.0262L114.4 34.7873L133.376 31.3793L136.358 48.6051L122.877 51.0262ZM76.0488 41.6748L84.806 40.102L93.2834 56.3409L84.5262 57.9137L76.0488 41.6748ZM37.6084 48.5783L46.3916 47.001L54.869 63.2399L46.0858 64.8173L37.6084 48.5783ZM65.3047 61.3657L56.8273 45.1268L65.6131 43.5489L74.0905 59.7878L65.3047 61.3657ZM27.1728 50.4525L16.5094 52.3676L19.4915 69.5934L35.6502 66.6914L27.1728 50.4525Z" fill="white"/>
</g>
</g>
<defs>
<clipPath id="clip0_47_5">
<rect width="156" height="156" fill="white" transform="translate(0.303711 0.275406)"/>
</clipPath>
</defs>
</svg>
