<svg width="1921" height="972" viewBox="0 0 1921 972" fill="none" xmlns="http://www.w3.org/2000/svg">
<rect x="0.191406" y="0.0385742" width="1920" height="808.395" fill="#F0E6E6"/>
<path d="M42.0378 925.753L25.6816 937.389H0.191406V788.767H1920.19V967.007L1906.64 971.767L1877.67 953.784L1832.34 916.761L1795.88 948.495H1758.97L1705.22 916.761L1683.26 919.935H1611.29L1536.99 958.545L1473.9 919.935L1407.54 859.64L1309.87 900.894L1288.84 896.134L1249.12 925.224L1215.47 907.77L1207.06 896.134L1154.72 907.77L1145.84 912.001L1073.41 907.77L1023.87 922.579L985.087 918.877L929.009 891.374H900.502L838.349 873.92L801.898 870.218L788.346 841.657H734.137L671.516 884.498L629.925 878.681L606.091 887.672L559.359 918.348L530.386 911.472L478.981 915.175L420.566 878.681L357.01 912.001L315.886 892.961H296.726L232.704 953.785L197.655 965.949L95.7794 914.646L42.0378 925.753Z" fill="#F0E6E6"/>
<path d="M42.0378 137.024L25.6816 148.66H0.191406V0.0385742H1920.19V178.278L1906.64 183.039L1877.67 165.056L1832.34 128.033L1795.88 159.767H1758.97L1705.22 128.033L1683.26 131.206H1611.29L1536.99 169.816L1473.9 131.206L1407.54 70.9114L1309.87 112.166L1288.84 107.406L1249.12 136.495L1215.47 119.041L1207.06 107.406L1154.72 119.041L1145.84 123.273L1073.41 119.041L1023.87 133.851L985.087 130.148L929.009 102.646H900.502L838.349 85.1917L801.898 81.4894L788.346 52.9288H734.137L671.516 95.7698L629.925 89.952L606.091 98.9433L559.359 129.62L530.386 122.744L478.981 126.446L420.566 89.952L357.01 123.273L315.886 104.232H296.726L232.704 165.056L197.655 177.221L95.7794 125.917L42.0378 137.024Z" fill="black"/>
</svg>
