<svg width="715" height="715" viewBox="0 0 715 715" fill="none" xmlns="http://www.w3.org/2000/svg">
<path fill-rule="evenodd" clip-rule="evenodd" d="M357.5 715C554.942 715 715 554.942 715 357.5C715 160.058 554.942 0 357.5 0C160.058 0 0 160.058 0 357.5C0 554.942 160.058 715 357.5 715ZM357 610C496.176 610 609 497.176 609 358C609 218.824 496.176 106 357 106C217.824 106 105 218.824 105 358C105 497.176 217.824 610 357 610Z" fill="#FFF9F9"/>
<path fill-rule="evenodd" clip-rule="evenodd" d="M357.5 715C554.942 715 715 554.942 715 357.5C715 160.058 554.942 0 357.5 0C160.058 0 0 160.058 0 357.5C0 554.942 160.058 715 357.5 715ZM357 610C496.176 610 609 497.176 609 358C609 218.824 496.176 106 357 106C217.824 106 105 218.824 105 358C105 497.176 217.824 610 357 610Z" fill="black"/>
<path d="M245.328 350.676C245.328 355.786 244.726 360.393 243.521 364.494C242.317 368.596 240.51 372.095 238.102 374.992C235.725 377.857 232.73 380.07 229.117 381.633C225.504 383.163 221.288 383.928 216.471 383.928C211.718 383.928 207.6 383.228 204.117 381.828C200.667 380.396 197.802 378.329 195.523 375.627C193.277 372.925 191.601 369.572 190.494 365.568C189.387 361.564 188.834 356.958 188.834 351.75C188.834 346.77 189.436 342.245 190.641 338.176C191.845 334.107 193.652 330.656 196.061 327.824C198.469 324.96 201.48 322.762 205.094 321.232C208.707 319.67 212.923 318.889 217.74 318.889C222.395 318.889 226.448 319.589 229.898 320.988C233.349 322.388 236.214 324.439 238.492 327.141C240.803 329.81 242.512 333.13 243.619 337.102C244.758 341.04 245.328 345.565 245.328 350.676ZM236.49 351.262C236.49 347.681 236.165 344.361 235.514 341.301C234.895 338.208 233.837 335.539 232.34 333.293C230.875 331.014 228.906 329.24 226.432 327.971C223.958 326.701 220.898 326.066 217.252 326.066C213.606 326.066 210.546 326.75 208.072 328.117C205.598 329.484 203.58 331.307 202.018 333.586C200.488 335.865 199.381 338.534 198.697 341.594C198.046 344.621 197.721 347.811 197.721 351.164C197.721 354.875 198.03 358.293 198.648 361.418C199.267 364.543 200.309 367.245 201.773 369.523C203.238 371.77 205.191 373.527 207.633 374.797C210.107 376.034 213.199 376.652 216.91 376.652C220.589 376.652 223.681 375.969 226.188 374.602C228.694 373.234 230.712 371.395 232.242 369.084C233.772 366.74 234.863 364.038 235.514 360.979C236.165 357.919 236.49 354.68 236.49 351.262ZM310.748 381.73C310.748 381.991 310.699 382.219 310.602 382.414C310.504 382.609 310.292 382.772 309.967 382.902C309.641 383.033 309.186 383.13 308.6 383.195C308.014 383.26 307.232 383.293 306.256 383.293C305.41 383.293 304.71 383.26 304.156 383.195C303.635 383.13 303.212 383.033 302.887 382.902C302.561 382.74 302.301 382.528 302.105 382.268C301.943 382.007 301.796 381.682 301.666 381.291L295.855 366.398C295.172 364.706 294.456 363.16 293.707 361.76C292.991 360.327 292.128 359.107 291.119 358.098C290.11 357.056 288.922 356.258 287.555 355.705C286.188 355.119 284.544 354.826 282.623 354.826H277.008V381.73C277.008 381.991 276.926 382.219 276.764 382.414C276.633 382.609 276.406 382.772 276.08 382.902C275.787 383 275.364 383.081 274.811 383.146C274.29 383.244 273.622 383.293 272.809 383.293C271.995 383.293 271.311 383.244 270.758 383.146C270.237 383.081 269.814 383 269.488 382.902C269.163 382.772 268.935 382.609 268.805 382.414C268.674 382.219 268.609 381.991 268.609 381.73V323.234C268.609 321.965 268.935 321.086 269.586 320.598C270.27 320.077 270.986 319.816 271.734 319.816H285.162C286.757 319.816 288.076 319.865 289.117 319.963C290.191 320.028 291.152 320.109 291.998 320.207C294.439 320.63 296.588 321.298 298.443 322.209C300.331 323.12 301.91 324.276 303.18 325.676C304.449 327.076 305.393 328.687 306.012 330.51C306.663 332.3 306.988 334.286 306.988 336.467C306.988 338.583 306.695 340.487 306.109 342.18C305.556 343.84 304.742 345.321 303.668 346.623C302.594 347.893 301.308 348.999 299.811 349.943C298.313 350.887 296.637 351.685 294.781 352.336C295.823 352.792 296.767 353.378 297.613 354.094C298.46 354.777 299.241 355.607 299.957 356.584C300.706 357.561 301.406 358.684 302.057 359.953C302.708 361.223 303.359 362.655 304.01 364.25L309.674 378.166C310.13 379.338 310.423 380.168 310.553 380.656C310.683 381.112 310.748 381.47 310.748 381.73ZM298.102 337.346C298.102 334.872 297.548 332.788 296.441 331.096C295.335 329.37 293.479 328.133 290.875 327.385C290.061 327.157 289.133 326.994 288.092 326.896C287.083 326.799 285.748 326.75 284.088 326.75H277.008V348.039H285.211C287.424 348.039 289.329 347.779 290.924 347.258C292.551 346.704 293.902 345.956 294.977 345.012C296.051 344.035 296.832 342.896 297.32 341.594C297.841 340.292 298.102 338.876 298.102 337.346ZM371.529 323.43C371.529 324.048 371.497 324.585 371.432 325.041C371.367 325.497 371.253 325.871 371.09 326.164C370.96 326.424 370.781 326.62 370.553 326.75C370.357 326.88 370.13 326.945 369.869 326.945H352.096V381.73C352.096 381.991 352.031 382.219 351.9 382.414C351.77 382.609 351.542 382.772 351.217 382.902C350.891 383 350.452 383.081 349.898 383.146C349.378 383.244 348.71 383.293 347.896 383.293C347.115 383.293 346.448 383.244 345.895 383.146C345.341 383.081 344.902 383 344.576 382.902C344.251 382.772 344.023 382.609 343.893 382.414C343.762 382.219 343.697 381.991 343.697 381.73V326.945H325.924C325.663 326.945 325.419 326.88 325.191 326.75C324.996 326.62 324.833 326.424 324.703 326.164C324.573 325.871 324.459 325.497 324.361 325.041C324.296 324.585 324.264 324.048 324.264 323.43C324.264 322.811 324.296 322.274 324.361 321.818C324.459 321.33 324.573 320.939 324.703 320.646C324.833 320.354 324.996 320.142 325.191 320.012C325.419 319.882 325.663 319.816 325.924 319.816H369.869C370.13 319.816 370.357 319.882 370.553 320.012C370.781 320.142 370.96 320.354 371.09 320.646C371.253 320.939 371.367 321.33 371.432 321.818C371.497 322.274 371.529 322.811 371.529 323.43ZM426.988 379.484C426.988 380.103 426.956 380.64 426.891 381.096C426.826 381.519 426.712 381.877 426.549 382.17C426.419 382.463 426.24 382.674 426.012 382.805C425.816 382.935 425.572 383 425.279 383H387.975C387.128 383 386.445 382.74 385.924 382.219C385.403 381.698 385.143 380.868 385.143 379.729V377.922C385.143 377.499 385.159 377.108 385.191 376.75C385.257 376.392 385.37 376.018 385.533 375.627C385.696 375.204 385.924 374.748 386.217 374.26C386.51 373.739 386.868 373.137 387.291 372.453L416.441 326.848H387.633C387.307 326.848 387.031 326.783 386.803 326.652C386.575 326.522 386.38 326.327 386.217 326.066C386.087 325.773 385.989 325.415 385.924 324.992C385.859 324.536 385.826 324.016 385.826 323.43C385.826 322.779 385.859 322.225 385.924 321.77C385.989 321.314 386.087 320.939 386.217 320.646C386.38 320.354 386.575 320.142 386.803 320.012C387.031 319.882 387.307 319.816 387.633 319.816H422.789C423.668 319.816 424.352 320.077 424.84 320.598C425.361 321.086 425.621 321.851 425.621 322.893V324.797C425.621 325.318 425.589 325.79 425.523 326.213C425.458 326.604 425.344 327.01 425.182 327.434C425.019 327.857 424.791 328.312 424.498 328.801C424.238 329.289 423.88 329.859 423.424 330.51L394.42 375.92H425.279C425.833 375.92 426.256 376.197 426.549 376.75C426.842 377.303 426.988 378.215 426.988 379.484ZM494.264 380.021C494.524 380.738 494.654 381.324 494.654 381.779C494.687 382.202 494.573 382.528 494.312 382.756C494.052 382.984 493.613 383.13 492.994 383.195C492.408 383.26 491.611 383.293 490.602 383.293C489.592 383.293 488.779 383.26 488.16 383.195C487.574 383.163 487.118 383.098 486.793 383C486.5 382.87 486.272 382.707 486.109 382.512C485.979 382.316 485.849 382.072 485.719 381.779L480.299 366.398H454.029L448.854 381.584C448.756 381.877 448.626 382.137 448.463 382.365C448.3 382.561 448.056 382.74 447.73 382.902C447.438 383.033 446.998 383.13 446.412 383.195C445.859 383.26 445.126 383.293 444.215 383.293C443.271 383.293 442.49 383.244 441.871 383.146C441.285 383.081 440.862 382.935 440.602 382.707C440.374 382.479 440.26 382.154 440.26 381.73C440.292 381.275 440.439 380.689 440.699 379.973L461.891 321.281C462.021 320.923 462.184 320.63 462.379 320.402C462.607 320.174 462.916 319.995 463.307 319.865C463.73 319.735 464.251 319.654 464.869 319.621C465.52 319.556 466.334 319.523 467.311 319.523C468.352 319.523 469.215 319.556 469.898 319.621C470.582 319.654 471.135 319.735 471.559 319.865C471.982 319.995 472.307 320.191 472.535 320.451C472.763 320.679 472.942 320.972 473.072 321.33L494.264 380.021ZM467.066 328.215H467.018L456.129 359.709H478.102L467.066 328.215ZM523.258 381.73C523.258 381.991 523.193 382.219 523.062 382.414C522.932 382.609 522.704 382.772 522.379 382.902C522.053 383 521.614 383.081 521.061 383.146C520.54 383.244 519.872 383.293 519.059 383.293C518.277 383.293 517.61 383.244 517.057 383.146C516.503 383.081 516.064 383 515.738 382.902C515.413 382.772 515.185 382.609 515.055 382.414C514.924 382.219 514.859 381.991 514.859 381.73V321.086C514.859 320.826 514.924 320.598 515.055 320.402C515.217 320.207 515.462 320.061 515.787 319.963C516.145 319.833 516.585 319.735 517.105 319.67C517.659 319.572 518.31 319.523 519.059 319.523C519.872 319.523 520.54 319.572 521.061 319.67C521.614 319.735 522.053 319.833 522.379 319.963C522.704 320.061 522.932 320.207 523.062 320.402C523.193 320.598 523.258 320.826 523.258 321.086V381.73Z" fill="black"/>
</svg>
