<svg width="735" height="1412" viewBox="0 0 735 1412" fill="none" xmlns="http://www.w3.org/2000/svg">
<path fill-rule="evenodd" clip-rule="evenodd" d="M136.56 1396.46H0.899048L0.89914 83.0943H130.976C130.976 114.214 159.098 129.048 173.159 132.575H570.362C602.427 132.575 611.293 97.2785 611.719 79.6304H734.858V1411.32H611.719C610.821 1405.16 611.113 1391.97 611.484 1375.17C612.786 1316.29 615.067 1213.1 570.542 1213.13C468.201 1213.21 277.89 1213.16 202.823 1213.14H202.354H202.182L198.369 1213.14H197.736H197.147H196.601H196.1C183.891 1213.13 175.646 1213.13 172.56 1213.13C135.877 1213.13 136.704 1319.86 137.099 1370.68C137.206 1384.5 137.281 1394.18 136.56 1396.46ZM40.5021 177.763C40.5021 168.374 48.1132 160.763 57.5021 160.763H84.6695C94.0584 160.763 101.67 168.374 101.67 177.763V206.407C101.67 215.796 94.0584 223.407 84.6695 223.407H57.5021C48.1132 223.407 40.5021 215.796 40.5021 206.407V177.763ZM659.67 160.763C650.281 160.763 642.67 168.374 642.67 177.763V206.407C642.67 215.796 650.281 223.407 659.67 223.407H686.837C696.226 223.407 703.837 215.796 703.837 206.407V177.763C703.837 168.374 696.226 160.763 686.837 160.763H659.67ZM642.67 298.408C642.67 289.019 650.281 281.408 659.67 281.408H686.837C696.226 281.408 703.837 289.019 703.837 298.408V327.052C703.837 336.441 696.226 344.052 686.837 344.052H659.67C650.281 344.052 642.67 336.441 642.67 327.052V298.408ZM57.5021 281.407C48.1132 281.407 40.5021 289.019 40.5021 298.407V327.052C40.5021 336.441 48.1132 344.052 57.5021 344.052H84.6695C94.0584 344.052 101.67 336.441 101.67 327.052V298.407C101.67 289.019 94.0584 281.407 84.6695 281.407H57.5021ZM642.67 419.052C642.67 409.663 650.281 402.052 659.67 402.052H686.837C696.226 402.052 703.837 409.663 703.837 419.052V447.696C703.837 457.085 696.226 464.696 686.837 464.696H659.67C650.281 464.696 642.67 457.085 642.67 447.696V419.052ZM57.5021 402.052C48.1132 402.052 40.5021 409.663 40.5021 419.052V447.696C40.5021 457.085 48.1132 464.696 57.5021 464.696H84.6695C94.0584 464.696 101.67 457.085 101.67 447.696V419.052C101.67 409.663 94.0584 402.052 84.6695 402.052H57.5021ZM642.67 539.696C642.67 530.307 650.281 522.696 659.67 522.696H686.837C696.226 522.696 703.837 530.307 703.837 539.696V568.341C703.837 577.73 696.226 585.341 686.837 585.341H659.67C650.281 585.341 642.67 577.73 642.67 568.341V539.696ZM57.5021 522.697C48.1132 522.697 40.5021 530.308 40.5021 539.697V568.341C40.5021 577.73 48.1132 585.341 57.5021 585.341H84.6695C94.0584 585.341 101.67 577.73 101.67 568.341V539.697C101.67 530.308 94.0584 522.697 84.6695 522.697H57.5021ZM642.67 660.341C642.67 650.952 650.281 643.341 659.67 643.341H686.837C696.226 643.341 703.837 650.952 703.837 660.341V688.985C703.837 698.374 696.226 705.985 686.837 705.985H659.67C650.281 705.985 642.67 698.374 642.67 688.985V660.341ZM57.5021 763.986C48.1132 763.986 40.5021 771.597 40.5021 780.986V809.63C40.5021 819.019 48.1132 826.63 57.5021 826.63H84.6695C94.0584 826.63 101.67 819.019 101.67 809.63V780.986C101.67 771.597 94.0584 763.986 84.6695 763.986H57.5021ZM642.67 901.63C642.67 892.241 650.281 884.63 659.67 884.63H686.837C696.226 884.63 703.837 892.241 703.837 901.63V930.275C703.837 939.663 696.226 947.275 686.837 947.275H659.67C650.281 947.275 642.67 939.663 642.67 930.275V901.63ZM57.5021 643.341C48.1132 643.341 40.5021 650.952 40.5021 660.341V688.985C40.5021 698.374 48.1132 705.985 57.5021 705.985H84.6695C94.0584 705.985 101.67 698.374 101.67 688.985V660.341C101.67 650.952 94.0584 643.341 84.6695 643.341H57.5021ZM642.67 780.985C642.67 771.597 650.281 763.985 659.67 763.985H686.837C696.226 763.985 703.837 771.597 703.837 780.985V809.63C703.837 819.019 696.226 826.63 686.837 826.63H659.67C650.281 826.63 642.67 819.019 642.67 809.63V780.985ZM57.5021 884.63C48.1132 884.63 40.5021 892.241 40.5021 901.63V930.275C40.5021 939.663 48.1132 947.275 57.5021 947.275H84.6695C94.0584 947.275 101.67 939.663 101.67 930.275V901.63C101.67 892.241 94.0584 884.63 84.6695 884.63H57.5021ZM642.67 1022.27C642.67 1012.89 650.281 1005.27 659.67 1005.27H686.837C696.226 1005.27 703.837 1012.89 703.837 1022.27V1050.92C703.837 1060.31 696.226 1067.92 686.837 1067.92H659.67C650.281 1067.92 642.67 1060.31 642.67 1050.92V1022.27ZM57.5021 1005.27C48.1132 1005.27 40.5021 1012.89 40.5021 1022.27V1050.92C40.5021 1060.31 48.1132 1067.92 57.5021 1067.92H84.6695C94.0584 1067.92 101.67 1060.31 101.67 1050.92V1022.27C101.67 1012.89 94.0584 1005.27 84.6695 1005.27H57.5021ZM40.5021 1150.13C40.5021 1140.74 48.1132 1133.13 57.5021 1133.13H84.6695C94.0584 1133.13 101.67 1140.74 101.67 1150.13V1178.77C101.67 1188.16 94.0584 1195.77 84.6695 1195.77H57.5021C48.1132 1195.77 40.5021 1188.16 40.5021 1178.77V1150.13ZM659.67 1125.92C650.281 1125.92 642.67 1133.53 642.67 1142.92V1171.56C642.67 1180.95 650.281 1188.56 659.67 1188.56H686.837C696.226 1188.56 703.837 1180.95 703.837 1171.56V1142.92C703.837 1133.53 696.226 1125.92 686.837 1125.92H659.67Z" fill="#646464"/>
</svg>
