<svg width="735" height="1245" viewBox="0 0 735 1245" fill="none" xmlns="http://www.w3.org/2000/svg">
<path fill-rule="evenodd" clip-rule="evenodd" d="M0.295715 1187.91L1.84605 1191.31L36.0811 1184.77L43.6888 1193.75L81.4234 1211.25L122.201 1184.77L143.351 1188.72L240.882 1151.89L307.35 1205.35L321.447 1213.58C357.112 1213.59 395.73 1213.59 433.32 1213.59L450.248 1205.92H522.979L543.368 1203.18L563.483 1213.55C565.671 1213.55 567.823 1213.55 569.939 1213.55C583.331 1213.54 593.1 1220.49 600.259 1231.49H638.16L673.917 1204.1L716.216 1234.39L734.255 1244.85V80.0457H611.115C610.69 97.6937 601.823 132.99 569.759 132.99H172.556C158.495 129.463 130.373 114.629 130.373 83.5095H0.295805L0.295715 1187.91ZM180.86 1213.55C184.751 1213.55 189.673 1213.55 195.497 1213.55H195.998H196.543H196.728C190.35 1213.55 185.007 1213.55 180.86 1213.55ZM129.879 459.998C129.879 435.698 149.579 415.998 173.879 415.998H575.024C599.325 415.998 619.024 435.698 619.024 459.998V1053.91C619.024 1078.21 599.325 1097.91 575.024 1097.91H173.879C149.579 1097.91 129.879 1078.21 129.879 1053.91V459.998ZM56.8987 161.178C47.5099 161.178 39.8987 168.789 39.8987 178.178V206.823C39.8987 216.211 47.5099 223.823 56.8987 223.823H84.0662C93.4551 223.823 101.066 216.211 101.066 206.823V178.178C101.066 168.789 93.4551 161.178 84.0662 161.178H56.8987ZM642.066 178.178C642.066 168.789 649.677 161.178 659.066 161.178H686.234C695.623 161.178 703.234 168.789 703.234 178.178V206.823C703.234 216.212 695.623 223.823 686.234 223.823H659.066C649.677 223.823 642.066 216.212 642.066 206.823V178.178ZM659.066 281.823C649.677 281.823 642.066 289.434 642.066 298.823V327.467C642.066 336.856 649.677 344.467 659.066 344.467H686.234C695.623 344.467 703.234 336.856 703.234 327.467V298.823C703.234 289.434 695.623 281.823 686.234 281.823H659.066ZM39.8987 298.823C39.8987 289.434 47.5099 281.823 56.8987 281.823H84.0662C93.4551 281.823 101.066 289.434 101.066 298.823V327.467C101.066 336.856 93.4551 344.467 84.0662 344.467H56.8987C47.5099 344.467 39.8987 336.856 39.8987 327.467V298.823ZM659.066 402.467C649.677 402.467 642.066 410.078 642.066 419.467V448.112C642.066 457.5 649.677 465.112 659.066 465.112H686.234C695.623 465.112 703.234 457.5 703.234 448.112V419.467C703.234 410.078 695.623 402.467 686.234 402.467H659.066ZM39.8987 419.467C39.8987 410.078 47.5099 402.467 56.8987 402.467H84.0662C93.4551 402.467 101.066 410.078 101.066 419.467V448.112C101.066 457.5 93.4551 465.112 84.0662 465.112H56.8987C47.5099 465.112 39.8987 457.5 39.8987 448.112V419.467ZM659.066 523.112C649.677 523.112 642.066 530.723 642.066 540.112V568.756C642.066 578.145 649.677 585.756 659.066 585.756H686.234C695.623 585.756 703.234 578.145 703.234 568.756V540.112C703.234 530.723 695.623 523.112 686.234 523.112H659.066ZM39.8987 540.112C39.8987 530.723 47.5099 523.112 56.8987 523.112H84.0662C93.4551 523.112 101.066 530.723 101.066 540.112V568.756C101.066 578.145 93.4551 585.756 84.0662 585.756H56.8987C47.5099 585.756 39.8987 578.145 39.8987 568.756V540.112ZM659.066 643.756C649.677 643.756 642.066 651.367 642.066 660.756V689.401C642.066 698.79 649.677 706.401 659.066 706.401H686.234C695.623 706.401 703.234 698.79 703.234 689.401V660.756C703.234 651.367 695.623 643.756 686.234 643.756H659.066ZM39.8987 781.401C39.8987 772.012 47.5099 764.401 56.8987 764.401H84.0662C93.4551 764.401 101.066 772.012 101.066 781.401V810.045C101.066 819.434 93.4551 827.045 84.0662 827.045H56.8987C47.5099 827.045 39.8987 819.434 39.8987 810.045V781.401ZM659.066 885.045C649.677 885.045 642.066 892.657 642.066 902.045V930.69C642.066 940.079 649.677 947.69 659.066 947.69H686.234C695.623 947.69 703.234 940.079 703.234 930.69V902.045C703.234 892.657 695.623 885.045 686.234 885.045H659.066ZM39.8987 660.756C39.8987 651.367 47.5099 643.756 56.8987 643.756H84.0662C93.4551 643.756 101.066 651.367 101.066 660.756V689.401C101.066 698.789 93.4551 706.401 84.0662 706.401H56.8987C47.5099 706.401 39.8987 698.79 39.8987 689.401V660.756ZM659.066 764.401C649.677 764.401 642.066 772.012 642.066 781.401V810.045C642.066 819.434 649.677 827.045 659.066 827.045H686.234C695.623 827.045 703.234 819.434 703.234 810.045V781.401C703.234 772.012 695.623 764.401 686.234 764.401H659.066ZM39.8987 902.045C39.8987 892.656 47.5099 885.045 56.8987 885.045H84.0662C93.4551 885.045 101.066 892.656 101.066 902.045V930.69C101.066 940.079 93.4551 947.69 84.0662 947.69H56.8987C47.5099 947.69 39.8987 940.079 39.8987 930.69V902.045ZM659.066 1005.69C649.677 1005.69 642.066 1013.3 642.066 1022.69V1051.33C642.066 1060.72 649.677 1068.33 659.066 1068.33H686.234C695.623 1068.33 703.234 1060.72 703.234 1051.33V1022.69C703.234 1013.3 695.623 1005.69 686.234 1005.69H659.066ZM39.8987 1022.69C39.8987 1013.3 47.5099 1005.69 56.8987 1005.69H84.0662C93.4551 1005.69 101.066 1013.3 101.066 1022.69V1051.33C101.066 1060.72 93.4551 1068.33 84.0662 1068.33H56.8987C47.5099 1068.33 39.8987 1060.72 39.8987 1051.33V1022.69ZM56.8987 1133.54C47.5099 1133.54 39.8987 1141.15 39.8987 1150.54V1179.19C39.8987 1188.57 47.5099 1196.19 56.8987 1196.19H84.0662C93.4551 1196.19 101.066 1188.57 101.066 1179.19V1150.54C101.066 1141.15 93.4551 1133.54 84.0662 1133.54H56.8987ZM642.066 1143.33C642.066 1133.95 649.677 1126.33 659.066 1126.33H686.234C695.623 1126.33 703.234 1133.95 703.234 1143.33V1171.98C703.234 1181.37 695.623 1188.98 686.234 1188.98H659.066C649.677 1188.98 642.066 1181.37 642.066 1171.98V1143.33Z" fill="#D41F1C"/>
</svg>
